<svg id="Layer_1" data-name="Layer 1" xmlns="http://www.w3.org/2000/svg" xmlns:xlink="http://www.w3.org/1999/xlink" viewBox="0 0 584.72 789.55"><defs><style>.cls-1,.cls-12,.cls-2,.cls-21,.cls-27,.cls-30,.cls-31,.cls-5,.cls-9{fill:none;}.cls-2{clip-rule:evenodd;}.cls-3{clip-path:url(#clip-path);}.cls-4{fill:#ffd0a9;}.cls-12,.cls-21,.cls-27,.cls-5,.cls-9{stroke:#1b242b;}.cls-12,.cls-21,.cls-27,.cls-30,.cls-31,.cls-5,.cls-9{stroke-linecap:round;}.cls-12,.cls-27,.cls-30,.cls-31,.cls-5,.cls-9{stroke-miterlimit:10;}.cls-12,.cls-5,.cls-9{stroke-width:18.1px;}.cls-5{stroke-dasharray:185.54 67.88;}.cls-6{clip-path:url(#clip-path-2);}.cls-7{fill:#ffa776;}.cls-8{clip-path:url(#clip-path-3);}.cls-9{stroke-dasharray:113.13 52.04;}.cls-10{clip-path:url(#clip-path-4);}.cls-11{clip-path:url(#clip-path-5);}.cls-12{stroke-dasharray:656.17 63.35;}.cls-13{clip-path:url(#clip-path-6);}.cls-14{isolation:isolate;}.cls-15{clip-path:url(#clip-path-7);}.cls-16{clip-path:url(#clip-path-8);}.cls-17{clip-path:url(#clip-path-9);}.cls-18{fill:#cc9c7c;}.cls-18,.cls-26{opacity:0.5;}.cls-19{clip-path:url(#clip-path-10);}.cls-20{fill:#754c29;}.cls-21{stroke-linejoin:round;stroke-width:18.1px;stroke-dasharray:547.56 46;}.cls-22{clip-path:url(#clip-path-11);}.cls-23{fill:#e5b592;}.cls-24{clip-path:url(#clip-path-12);}.cls-25{clip-path:url(#clip-path-13);}.cls-26{fill:#f4f4f4;}.cls-27{stroke-width:15.84px;}.cls-28{clip-path:url(#clip-path-14);}.cls-29{fill:#e6e7e8;}.cls-30{stroke:#23262c;stroke-width:27.15px;}.cls-31{stroke:#754c29;stroke-width:22.63px;stroke-dasharray:837.19 63.35;}</style><clipPath id="clip-path"><path class="cls-1" d="M120.87,483.5c-35.58,0-67.16-61.33-67.16-109s32-63.12,67.16-63.12C120.87,312,120,481.11,120.87,483.5Z"/></clipPath><clipPath id="clip-path-2"><path class="cls-1" d="M134,453.13c-53.59-4.76-72-49.42-66.09-88.72,3-17.86,28-19.65,33.94-3Z"/></clipPath><clipPath id="clip-path-3"><path class="cls-1" d="M449.56,489.45c35.58,0,67.16-61.33,67.16-109s-32-63.12-67.16-63.12C449.56,318,450.45,487.07,449.56,489.45Z"/></clipPath><clipPath id="clip-path-4"><path class="cls-1" d="M502.55,370.36c-3-17.86-28-19.65-33.94-3l-32.15,91.7C490,454.32,508.5,409.66,502.55,370.36Z"/></clipPath><clipPath id="clip-path-5"><path class="cls-1" d="M328.68,85.74H241.75c-84,0-153,67.88-153,150.65V456.11c0,56.57,25,106,64.9,141.12A245,245,0,0,1,188.16,633,128.15,128.15,0,0,0,387,630c10.12-13.1,22-25,33.94-36.32,37.51-35.13,60.73-82.77,60.73-137.55V237C481.71,153.62,413.23,85.74,328.68,85.74Z"/></clipPath><clipPath id="clip-path-6"><path class="cls-2" d="M329.28,89.32H242.34c-84,0-153,67.88-153,150.65V459.68c0,56.57,25,106,64.9,141.12a245,245,0,0,1,34.54,35.73,128.15,128.15,0,0,0,198.88-3c10.12-13.1,22-25,33.94-36.32,37.51-35.13,60.73-82.77,60.73-137.55V240.56C482.3,157.2,413.83,89.32,329.28,89.32Z"/></clipPath><clipPath id="clip-path-7"><rect class="cls-1" x="29.77" y="372.03" width="529.94" height="392.99"/></clipPath><clipPath id="clip-path-8"><path class="cls-1" d="M510.89,375.72l-4.17,3.57c-42.28,35.13-69.67,84-79.19,138.14a4.5,4.5,0,0,1-.6,2.38c-7.15,39.89-47,83.36-86.34,74.43-12.5-3-28.58-4.76-48.83-4.76s-36.32,1.79-48.83,4.76c-39.3,8.34-78.6-35.13-85.74-75a4.5,4.5,0,0,0-.6-2.38c-9.53-54.18-36.92-103-79.19-138.14l-4.17-3.57L29.77,391.8v368l262.59-.6,262.59-6V392.39Z"/></clipPath><clipPath id="clip-path-9"><rect class="cls-1" x="89.32" y="86.22" width="398.94" height="601.39"/></clipPath><clipPath id="clip-path-10"><path class="cls-1" d="M120.17,222.7s9.53-66.69,28.58-84c49.42-44.06,210.19-46.44,265.57-.6,17.27,14.29,31.56,17.27,31.56,80.38,0,0,33.2-23.58,33.2,74.07,0,0,37.06-165.18-53.45-189.59,0,0-40.25-79.08-165.89-79.08-48.27-.26-73.4,1.51-99.33,12C126.84,49.52,99.12,74.13,94.08,92.27c-15.48,53.59-13.34,102.92-5,205.33C89.08,297.61,99.92,245.33,120.17,222.7Z"/></clipPath><clipPath id="clip-path-11"><path class="cls-1" d="M376.91,502.55c0-17.27-40.49-31-91.1-31s-91.1,13.7-91.1,31,40.49,14.89,91.1,14.89S376.91,519.82,376.91,502.55Z"/></clipPath><clipPath id="clip-path-12"><ellipse class="cls-1" cx="285.81" cy="477.54" rx="18.46" ry="15.48"/></clipPath><clipPath id="clip-path-13"><path class="cls-1" d="M306.06,427.52c0,10.12-8.93,9.53-20.24,9.53s-20.24.6-20.24-9.53,8.93-18.46,20.24-18.46S306.06,417.4,306.06,427.52Z"/></clipPath><clipPath id="clip-path-14"><path class="cls-1" d="M209.59,513.27s73.83,17.27,152.43,0C366.79,506.12,282.24,621.64,209.59,513.27Z"/></clipPath></defs><title>avatar--illustrated--kyle</title><g class="cls-3"><rect class="cls-4" x="23.94" y="281.64" width="126.71" height="231.63"/></g><path class="cls-5" d="M120.87,483.5c-35.58,0-67.16-61.33-67.16-109s32-63.12,67.16-63.12C120.87,312,120,481.11,120.87,483.5Z"/><g class="cls-6"><rect class="cls-7" x="37.04" y="320.14" width="126.71" height="162.76"/></g><g class="cls-8"><rect class="cls-4" x="419.78" y="287.6" width="126.71" height="231.63"/></g><path class="cls-9" d="M449.56,489.45c35.58,0,67.16-61.33,67.16-109s-32-63.12-67.16-63.12C449.56,318,450.45,487.07,449.56,489.45Z"/><g class="cls-10"><rect class="cls-7" x="406.68" y="326.09" width="126.71" height="162.76"/></g><g class="cls-11"><rect class="cls-4" x="58.95" y="55.97" width="452.53" height="652.6"/></g><path class="cls-12" d="M328.68,85.74H241.75c-84,0-153,67.88-153,150.65V456.11c0,56.57,25,106,64.9,141.12A245,245,0,0,1,188.16,633,128.15,128.15,0,0,0,387,630c10.12-13.1,22-25,33.94-36.32,37.51-35.13,60.73-82.77,60.73-137.55V237C481.71,153.62,413.23,85.74,328.68,85.74Z"/><g class="cls-13"><g class="cls-14"><g class="cls-15"><g class="cls-16"><g class="cls-17"><rect class="cls-18" y="345.35" width="584.72" height="444.2"/></g></g></g></g></g><path class="cls-12" d="M329.28,83.36H242.34c-84,0-153,67.88-153,150.65V453.72c0,56.57,25,106,64.9,141.12a245,245,0,0,1,34.54,35.73,128.15,128.15,0,0,0,198.88-3c10.12-13.1,22-25,33.94-36.32,37.51-35.13,60.73-82.77,60.73-137.55V234.6C482.3,151.24,413.83,83.36,329.28,83.36Z"/><g class="cls-19"><rect class="cls-20" x="59.54" width="455.89" height="385.85"/></g><path class="cls-21" d="M120.17,222.7s9.53-66.69,28.58-84c49.42-44.06,210.19-46.44,265.57-.6,17.27,14.29,31.56,17.27,31.56,80.38,0,0,34.2-3.58,34.2,94.07,0,0,36.06-185.18-54.45-209.59,0,0-26.89-71.74-152.55-77.74C224.86,23,172,27.12,146.08,37.61,112.51,51.19,97.78,80.13,92.74,98.27c-15.48,53.59-14,106.92-5.67,209.33C87.08,307.61,99.92,245.33,120.17,222.7Z"/><g class="cls-22"><rect class="cls-23" x="164.94" y="441.81" width="241.75" height="105.5"/></g><g class="cls-24"><rect class="cls-4" x="237.58" y="432.29" width="96.46" height="90.51"/></g><g class="cls-25"><rect class="cls-26" x="235.79" y="379.29" width="100.03" height="87.54"/></g><path class="cls-27" d="M343.57,471l33.34,15.48L391.8,524M228.05,471l-33.34,15.48L179.82,524"/><g class="cls-28"><rect class="cls-29" x="179.82" y="483.17" width="212.17" height="106.48"/></g><path class="cls-27" d="M257.82,597.22a135.75,135.75,0,0,0,56,0m58.95-84s-8.93,6-26.2,24.41-30.37,22.63-58.95,22.63m-88.72-47s8.34,6,25.6,24.41,30.37,22.63,58.95,22.63m-92.89-50s89.32,25.6,189.94,0"/><path class="cls-27" d="M320,434.67s19.61,8.58,11,23.29c-6.13,10.42-14.71,4.9-20.23,9.19-8.58,6.74-12.26,9.19-23.29,9.19m-36.16-41.68s-19.61,8.58-11,23.29c6.13,10.42,14.71,4.9,20.23,9.19,8.58,6.74,12.26,9.19,23.29,9.19"/><path class="cls-30" d="M357.26,345.06v12.19M208.4,358v-12.6"/><path class="cls-31" d="M419.19,317.57s-52.92-43.75-99.44,0m-164.94,0s50-17.86,99.44,0"/></svg>